<?xml version="1.0" encoding="UTF-8" standalone="no"?>
<svg
   width="26.9375pt"
   height="26.935547pt"
   viewBox="0 0 26.937499 26.935546"
   version="1.2"
   id="svg28571"
   sodipodi:docname="en-tete-export.svg"
   xml:space="preserve"
   inkscape:version="1.2.2 (b0a8486541, 2022-12-01)"
   xmlns:inkscape="http://www.inkscape.org/namespaces/inkscape"
   xmlns:sodipodi="http://sodipodi.sourceforge.net/DTD/sodipodi-0.dtd"
   xmlns="http://www.w3.org/2000/svg"
   xmlns:svg="http://www.w3.org/2000/svg"><sodipodi:namedview
     id="namedview28573"
     pagecolor="#ffffff"
     bordercolor="#000000"
     borderopacity="0.25"
     inkscape:showpageshadow="2"
     inkscape:pageopacity="0.0"
     inkscape:pagecheckerboard="0"
     inkscape:deskcolor="#d1d1d1"
     inkscape:document-units="pt"
     showgrid="false"
     inkscape:zoom="3.9980996"
     inkscape:cx="82.289095"
     inkscape:cy="71.033748"
     inkscape:window-width="3840"
     inkscape:window-height="2091"
     inkscape:window-x="0"
     inkscape:window-y="0"
     inkscape:window-maximized="1"
     inkscape:current-layer="svg28571" /><defs
     id="defs28556"><clipPath
       id="clip1"><path
         d="M 0,0 H 360 V 137.51953 H 0 Z m 0,0"
         id="path28553" /></clipPath></defs><g
     id="path28564"
     transform="translate(0,-0.11914062)"><path
       style="color:#000000;fill:#ffffff;stroke-width:0.75024;stroke-linejoin:bevel;-inkscape-stroke:none"
       d="M 13.468291,26.680455 H 0.3751245 V 0.49415979 L 13.468291,13.587307 v 13.093148"
       id="path48832" /><path
       style="color:#000000;fill:#000000;stroke-linejoin:bevel;-inkscape-stroke:none"
       d="M 0.640625,0.22851563 0,0.49414063 V 26.679687 l 0.375,0.375 h 13.09375 v -0.375 h 0.375 V 13.587891 L 13.734375,13.322266 Z M 0.75,1.4003906 13.09375,13.742188 V 26.304687 H 0.75 Z"
       id="path48834" /></g><g
     id="path28566"
     transform="translate(0,-0.11914062)"><path
       style="color:#000000;fill:#ffffff;stroke-width:0.75024;stroke-linejoin:bevel;-inkscape-stroke:none"
       d="M 13.468291,26.680455 H 26.561426 V 0.49415979 L 13.468291,13.587307 v 13.093148"
       id="path48820" /><path
       style="color:#000000;fill:#000000;stroke-linejoin:bevel;-inkscape-stroke:none"
       d="M 26.296875,0.22851563 13.203125,13.322266 13.09375,13.587891 v 13.091796 h 0.375 v 0.375 h 13.091797 l 0.376953,-0.375 V 0.49414063 Z M 26.185547,1.4003906 V 26.304687 H 13.84375 V 13.742188 Z"
       id="path48822" /></g><g
     id="path28568"
     transform="translate(0,-0.11914062)"><path
       style="color:#000000;fill:#000000;stroke-width:0.75024;stroke-linejoin:bevel;-inkscape-stroke:none"
       d="M 13.468291,13.587307 0.3751245,0.49415979 H 26.561426 Z m 0,0"
       id="path48826" /><path
       style="color:#000000;fill:#000000;stroke-linejoin:bevel;-inkscape-stroke:none"
       d="m 0.375,0.11914062 -0.265625,0.640625 13.09375,13.09375038 h 0.53125 L 26.826172,0.75976562 26.560547,0.11914062 Z m 0.90625,0.75000001 h 24.375 L 13.46875,13.056641 Z"
       id="path48828" /></g></svg>
