<?xml version="1.0" encoding="UTF-8" standalone="no"?>
<!-- Created with Inkscape (http://www.inkscape.org/) -->

<svg
   width="30.467579mm"
   height="48.069191mm"
   viewBox="0 0 30.467579 48.069191"
   version="1.1"
   id="svg17996"
   sodipodi:docname="export3.svg"
   inkscape:version="1.2.2 (b0a8486541, 2022-12-01)"
   xmlns:inkscape="http://www.inkscape.org/namespaces/inkscape"
   xmlns:sodipodi="http://sodipodi.sourceforge.net/DTD/sodipodi-0.dtd"
   xmlns="http://www.w3.org/2000/svg"
   xmlns:svg="http://www.w3.org/2000/svg">
  <sodipodi:namedview
     id="namedview17998"
     pagecolor="#ffffff"
     bordercolor="#000000"
     borderopacity="0.25"
     inkscape:showpageshadow="2"
     inkscape:pageopacity="0.0"
     inkscape:pagecheckerboard="0"
     inkscape:deskcolor="#d1d1d1"
     inkscape:document-units="mm"
     showgrid="false"
     inkscape:zoom="5.1754899"
     inkscape:cx="31.397994"
     inkscape:cy="96.995648"
     inkscape:window-width="3840"
     inkscape:window-height="2091"
     inkscape:window-x="0"
     inkscape:window-y="0"
     inkscape:window-maximized="1"
     inkscape:current-layer="layer1" />
  <defs
     id="defs17993" />
  <g
     inkscape:label="Layer 1"
     inkscape:groupmode="layer"
     id="layer1"
     transform="translate(-229.1333,-125.76677)">
    <path
       style="display:inline;fill:#000000;stroke:#000000;stroke-width:0.0511757"
       d="m 254.89954,155.53371 c -0.49714,-0.0527 -0.89001,-0.34826 -0.97375,-0.73253 l -0.0167,-0.0768 -0.10978,-0.0503 c -0.26581,-0.12175 -0.72815,-0.24858 -1.08467,-0.29754 -0.46264,-0.0635 -1.22547,-0.0401 -1.58421,0.0487 -0.20176,0.05 -0.21583,0.0584 -0.24299,0.14575 -0.0572,0.18408 -0.18062,0.36495 -0.37709,0.55278 -0.14326,0.13696 -0.27367,0.21359 -0.45036,0.26464 -0.15253,0.0441 -0.50147,0.0439 -0.70689,-3.6e-4 -0.20574,-0.0444 -0.42274,-0.11318 -0.74115,-0.23515 -0.43438,-0.1664 -0.53316,-0.19701 -0.82595,-0.25596 -0.52204,-0.10511 -1.22118,-0.27532 -1.44881,-0.35273 -0.16536,-0.0562 -0.31491,-0.13563 -0.38545,-0.20466 -0.0322,-0.0315 -0.0775,-0.0969 -0.10056,-0.14531 -0.0396,-0.083 -0.042,-0.0968 -0.0413,-0.24372 6.3e-4,-0.14491 0.005,-0.17072 0.0644,-0.37197 0.0351,-0.11893 0.0706,-0.25556 0.079,-0.30361 0.017,-0.0979 0.01,-0.49106 -0.0155,-0.81975 -0.0352,-0.46032 0.0432,-0.68664 0.28052,-0.80968 0.12214,-0.0633 0.22773,-0.0962 0.46864,-0.14601 0.48369,-0.0999 0.5515,-0.14426 0.78701,-0.51438 0.11804,-0.1855 0.20198,-0.30037 0.25644,-0.35093 l 0.0353,-0.0328 v -0.25545 c 0,-0.55702 0.0792,-0.8915 0.33782,-1.42687 0.1636,-0.33866 0.31561,-0.59357 0.75421,-1.26475 0.67411,-1.03158 1.09737,-1.81723 1.2909,-2.39616 0.0963,-0.28811 0.10251,-0.34629 0.0959,-0.90088 -0.003,-0.2681 -0.006,-0.81343 -0.007,-1.21185 -6.8e-4,-0.77557 0.001,-0.80439 0.0744,-1.08999 0.1131,-0.44156 0.38606,-0.83872 0.76379,-1.11135 0.22624,-0.16329 0.58686,-0.32343 0.84908,-0.37705 0.12304,-0.0252 0.49744,-0.0291 0.67456,-0.007 0.55524,0.069 0.962,0.28518 1.2792,0.67988 0.2025,0.25197 0.32903,0.51564 0.41774,0.87052 0.0878,0.35123 0.10345,0.56014 0.10351,1.3823 0,0.82955 0.0174,1.03673 0.11078,1.32499 0.0849,0.26218 0.18115,0.43256 0.71452,1.26566 0.72878,1.1383 1.04816,1.66479 1.26103,2.07878 0.26709,0.51945 0.41233,0.92023 0.48109,1.32752 0.016,0.0949 0.0229,0.21698 0.0233,0.4124 5.2e-4,0.29738 -0.0204,0.46981 -0.0904,0.74471 -0.018,0.0707 -0.0317,0.12991 -0.0304,0.13146 0.001,0.002 0.0478,0.01 0.10339,0.018 0.13328,0.02 0.22861,0.0647 0.30408,0.14234 0.12238,0.12592 0.16395,0.22998 0.21716,0.54358 0.042,0.24743 0.0568,0.29732 0.13171,0.44206 0.0707,0.13665 0.14138,0.21285 0.42293,0.45569 0.39561,0.34126 0.49528,0.46988 0.5056,0.65248 0.006,0.11382 -0.0211,0.19649 -0.10165,0.30492 -0.1077,0.14501 -0.31036,0.29569 -1.00649,0.74834 -0.17501,0.1138 -0.36999,0.24396 -0.43329,0.28924 -0.20524,0.14682 -0.81603,0.62566 -0.93428,0.73244 -0.32444,0.29299 -0.52314,0.39247 -0.85303,0.42704 -0.14411,0.0151 -0.17919,0.015 -0.32677,-5.2e-4 z m 0.50956,-0.16061 c 0.20019,-0.0528 0.35202,-0.14405 0.57546,-0.34596 0.12079,-0.10915 0.60114,-0.48985 0.86679,-0.68696 0.0858,-0.0636 0.3112,-0.21741 0.50099,-0.34173 0.75223,-0.49276 0.93187,-0.62478 1.01173,-0.74353 0.0862,-0.12825 0.0876,-0.21191 0.005,-0.34672 -0.0726,-0.11923 -0.19743,-0.25162 -0.42698,-0.45298 -0.23671,-0.20763 -0.2844,-0.25799 -0.37337,-0.39429 -0.0888,-0.13598 -0.14033,-0.28699 -0.18984,-0.55597 -0.023,-0.12493 -0.0535,-0.25368 -0.0679,-0.28613 -0.0335,-0.0759 -0.17698,-0.22533 -0.24887,-0.25935 -0.0764,-0.0362 -0.23474,-0.0582 -0.38066,-0.0531 l -0.12187,0.004 -0.0887,0.15571 c -0.21181,0.37192 -0.3706,0.55697 -0.61302,0.7144 -0.33007,0.21435 -0.70529,0.25901 -0.9053,0.10775 -0.16613,-0.12565 -0.29238,-0.46505 -0.31716,-0.85261 -0.006,-0.0993 -0.0145,-0.14556 -0.0256,-0.14556 -0.0423,0 -0.11319,0.0352 -0.16027,0.0797 -0.0654,0.0617 -0.0983,0.1252 -0.13267,0.25657 -0.0288,0.10998 -0.034,0.20761 -0.0654,1.23445 -0.0175,0.57234 -0.0266,0.65973 -0.10353,0.99795 -0.15462,0.67945 -0.17275,0.82782 -0.13551,1.10926 0.012,0.0903 0.034,0.20394 0.049,0.25253 0.0865,0.27997 0.37939,0.49788 0.76822,0.5715 0.14852,0.0281 0.43553,0.0186 0.57899,-0.0192 z m -5.53795,-0.0824 c 0.31806,-0.0357 0.54431,-0.18124 0.769,-0.49478 0.12834,-0.17909 0.1831,-0.37295 0.16611,-0.58808 -0.0237,-0.30069 -0.0944,-0.44188 -0.39243,-0.78372 -0.203,-0.23289 -0.23218,-0.2718 -0.48352,-0.64478 -0.11543,-0.17128 -0.37439,-0.54601 -0.57548,-0.83272 -0.20109,-0.28672 -0.43833,-0.62782 -0.52719,-0.75802 -0.31836,-0.46642 -0.52226,-0.60991 -0.78129,-0.54983 -0.19778,0.0459 -0.3037,0.13336 -0.42441,0.35057 -0.14302,0.25736 -0.16086,0.2842 -0.24577,0.36973 -0.13005,0.131 -0.24546,0.18197 -0.57926,0.25584 -0.33448,0.074 -0.42568,0.10184 -0.52014,0.15863 -0.0908,0.0546 -0.1496,0.12965 -0.18414,0.23505 -0.0217,0.0662 -0.0259,0.11451 -0.0241,0.27653 10e-4,0.10799 0.004,0.36694 0.007,0.57546 0.005,0.43385 -0.002,0.48709 -0.10471,0.80852 -0.0685,0.21382 -0.075,0.29467 -0.0325,0.40817 0.0916,0.24471 0.24533,0.31528 1.16406,0.53422 0.21971,0.0524 0.48476,0.11148 0.589,0.13137 0.32421,0.0619 0.49194,0.10819 0.75821,0.20937 0.68587,0.26063 0.93292,0.32864 1.27278,0.35041 0.0149,0.001 0.0819,-0.004 0.14895,-0.0119 z m 2.43047,-1.77964 c 0.57189,-0.0892 1.06049,-0.29952 1.44923,-0.62375 0.0574,-0.0479 0.16809,-0.15357 0.24606,-0.23494 l 0.14176,-0.14793 0.0165,-0.49217 c 0.0258,-0.76822 0.0424,-0.89638 0.1357,-1.04336 0.05,-0.0789 0.1572,-0.15167 0.26385,-0.17923 0.0439,-0.0114 0.0808,-0.0222 0.0819,-0.0242 0.001,-0.002 0.0123,-0.0375 0.0249,-0.0789 0.0733,-0.24133 0.32255,-0.32888 0.93708,-0.32921 0.36524,-2.1e-4 0.61707,0.0355 0.79776,0.1129 0.0341,0.0146 0.062,0.0242 0.062,0.0213 0,-0.0115 -0.15988,-0.0995 -0.23018,-0.12668 -0.17986,-0.0696 -0.43446,-0.11652 -0.72008,-0.13284 l -0.15806,-0.009 0.0245,-0.0623 c 0.0677,-0.17262 0.13979,-0.48773 0.15679,-0.68571 0.016,-0.18639 -0.0274,-0.48827 -0.10414,-0.72385 -0.10795,-0.33152 -0.35509,-0.6923 -0.6412,-0.93608 -0.17188,-0.14645 -0.17555,-0.14115 -0.021,0.0303 0.29051,0.32223 0.46935,0.65447 0.55678,1.03438 0.0363,0.15776 0.0513,0.55392 0.0268,0.70766 -0.0228,0.14291 -0.0853,0.33444 -0.16355,0.5008 l -0.0652,0.13879 h -0.0822 -0.0822 v -0.13879 c -1.5e-4,-0.46091 -0.0807,-0.92786 -0.23761,-1.37742 -0.17922,-0.51336 -0.38901,-0.92483 -0.59105,-1.15924 -0.0513,-0.0595 -0.0627,-0.0845 -0.0834,-0.18279 -0.0403,-0.19141 -0.0753,-0.2947 -0.17391,-0.51328 -0.23287,-0.51639 -0.33811,-0.87198 -0.47088,-1.59098 -0.0234,-0.1266 -0.0458,-0.24368 -0.0498,-0.26019 l -0.007,-0.03 -0.0697,0.0352 c -0.10233,0.0517 -0.20315,0.12295 -0.37944,0.26793 -0.255,0.20971 -0.38545,0.30059 -0.54332,0.37853 -0.21109,0.10422 -0.34875,0.1451 -0.51678,0.15346 -0.44774,0.0223 -0.76129,-0.14116 -1.1065,-0.57675 -0.0493,-0.0621 -0.0897,-0.11089 -0.0899,-0.10832 -1.6e-4,0.003 -0.0216,0.12932 -0.0477,0.28166 -0.0824,0.48165 -0.19991,0.97314 -0.29795,1.2463 -0.0377,0.10495 -0.16208,0.36753 -0.26946,0.56869 -0.0338,0.0633 -0.0863,0.19078 -0.11664,0.28329 -0.0446,0.13589 -0.0664,0.18141 -0.11358,0.23696 -0.3532,0.41604 -0.75114,1.54449 -0.81924,2.3232 -0.008,0.0931 -0.0162,0.20886 -0.0179,0.25727 l -0.003,0.088 -0.0315,-0.0677 c -0.0924,-0.19895 -0.13521,-0.39201 -0.14698,-0.66348 -0.0274,-0.63296 0.17905,-1.2751 0.55905,-1.73859 0.0464,-0.0565 0.0812,-0.10589 0.0774,-0.10963 -0.004,-0.004 -0.0607,0.0493 -0.12647,0.11778 -0.37389,0.38971 -0.61792,1.01987 -0.657,1.69659 -0.0244,0.42263 0.11447,0.93684 0.32912,1.21862 0.0369,0.0484 0.15486,0.17332 0.26218,0.27758 0.19185,0.18638 0.35959,0.321 0.85199,0.68378 0.26834,0.19769 0.45529,0.3642 0.51609,0.45963 0.0323,0.0507 0.0383,0.0745 0.0383,0.15113 0,0.11147 -0.0355,0.23057 -0.0941,0.31573 -0.0474,0.0689 -0.16932,0.16577 -0.27791,0.22086 l -0.0673,0.0342 0.0807,0.0751 c 0.2587,0.2408 0.64243,0.39578 1.1117,0.44899 0.1673,0.0189 0.75983,0.007 0.92593,-0.0193 z m -0.22076,-7.83086 c 0.25679,-0.0873 0.4223,-0.18631 0.75461,-0.45141 0.11539,-0.0921 0.26641,-0.20153 0.33558,-0.24326 0.17572,-0.10602 0.20817,-0.16014 0.22314,-0.37215 0.01,-0.14001 -0.007,-0.19271 -0.0857,-0.26163 -0.0699,-0.0616 -0.16674,-0.10424 -0.52623,-0.23203 -0.1415,-0.0503 -0.35679,-0.129 -0.47843,-0.17488 -0.31143,-0.11748 -0.39788,-0.13829 -0.58448,-0.14068 -0.092,-0.001 -0.1862,0.005 -0.23018,0.0163 -0.21049,0.0517 -0.65809,0.32324 -0.85142,0.51657 -0.1635,0.16351 -0.23473,0.3255 -0.19225,0.43723 0.008,0.0223 0.0508,0.0529 0.13202,0.0955 0.0658,0.0345 0.20584,0.11359 0.31131,0.17576 0.29461,0.17366 0.4775,0.2232 0.76186,0.20639 0.38794,-0.0229 0.70918,-0.15043 1.18753,-0.47138 0.18761,-0.12588 0.26872,-0.17313 0.28579,-0.1665 0.0214,0.008 0.0203,0.0123 -0.0105,0.039 -0.0189,0.0163 -0.1164,0.0883 -0.21671,0.15995 -0.53338,0.38088 -0.86869,0.51647 -1.279,0.51717 -0.32012,5.3e-4 -0.48078,-0.0488 -0.7921,-0.2435 -0.25261,-0.15796 -0.24132,-0.15191 -0.20963,-0.11225 0.29302,0.36667 0.36008,0.4394 0.50751,0.55036 0.26083,0.19631 0.65075,0.25962 0.95724,0.15543 z m -0.78846,-1.60123 c -0.0161,-0.0261 0.006,-0.0756 0.0412,-0.0916 0.0521,-0.0237 0.13737,-0.0345 0.14722,-0.0185 0.009,0.0145 -0.13545,0.12446 -0.16347,0.12446 -0.009,0 -0.0201,-0.006 -0.025,-0.0143 z m 0.60301,-0.0459 -0.11509,-0.0589 0.0515,-0.01 c 0.0717,-0.0136 0.1429,5.2e-4 0.18059,0.0359 0.0337,0.0316 0.0437,0.0934 0.015,0.0923 -0.009,-3.6e-4 -0.0687,-0.0272 -0.13202,-0.0596 z m 1.33135,0.01 c 0.17801,-0.26511 0.23322,-0.42732 0.22235,-0.65332 -0.0169,-0.35181 -0.18781,-0.60886 -0.4674,-0.70305 -0.32137,-0.10826 -0.71943,0.12313 -0.84117,0.48896 -0.0556,0.16707 -0.0941,0.46791 -0.0722,0.56453 0.01,0.0435 0.0168,0.048 0.13876,0.0909 0.0706,0.0248 0.13209,0.0454 0.13658,0.0456 0.005,2.5e-4 -5.1e-4,-0.0315 -0.0111,-0.0706 -0.0254,-0.0936 -0.0151,-0.25131 0.0229,-0.352 0.0177,-0.0469 0.0559,-0.10683 0.0961,-0.15084 0.2441,-0.26708 0.60258,-0.11534 0.63152,0.26732 0.0125,0.16465 -0.0447,0.31753 -0.16096,0.4308 -0.0437,0.0425 -0.061,0.0677 -0.0493,0.0719 0.0147,0.005 0.25735,0.0982 0.2635,0.10099 0.001,4.6e-4 0.0418,-0.0586 0.0905,-0.13118 z m -2.44099,0.0693 0.0684,-0.0492 -0.0409,-0.0249 c -0.0225,-0.0137 -0.0592,-0.0501 -0.0815,-0.0809 -0.15512,-0.21413 -0.13775,-0.56703 0.0344,-0.69831 0.20751,-0.15828 0.475,0.13107 0.44775,0.48434 l -0.008,0.10588 0.0767,-0.0339 c 0.0422,-0.0186 0.08,-0.0372 0.0839,-0.0412 0.004,-0.004 0.006,-0.0754 0.005,-0.15864 -0.005,-0.36439 -0.16527,-0.70536 -0.37322,-0.79481 -0.0881,-0.0379 -0.23042,-0.033 -0.31599,0.0108 -0.26646,0.1366 -0.32675,0.68475 -0.12142,1.10381 0.044,0.0898 0.13435,0.22607 0.14988,0.22607 0.004,0 0.0374,-0.0221 0.075,-0.0492 z"
       id="path294-1"
       sodipodi:nodetypes="cscsssssscssssssssssssscsssssscssssscsssscscsssssssssssccsssssssssssscsssssssssscssscssssssssssssscssssscccsscssscccsssscssssssssccccsscssccsssssscssscsscscsscsssssssscssccssssssssssssssssssssssscssscscsssscsssssscscsssccscscsscsscsssss" />
  </g>
</svg>
