<?xml version="1.0" encoding="UTF-8" standalone="no"?>
<!-- Created with Inkscape (http://www.inkscape.org/) -->

<svg
   width="249.0681mm"
   height="293.10767mm"
   viewBox="0 0 249.0681 293.10767"
   version="1.1"
   id="svg5"
   xml:space="preserve"
   inkscape:version="1.2.2 (b0a8486541, 2022-12-01)"
   sodipodi:docname="tux.svg"
   xmlns:inkscape="http://www.inkscape.org/namespaces/inkscape"
   xmlns:sodipodi="http://sodipodi.sourceforge.net/DTD/sodipodi-0.dtd"
   xmlns="http://www.w3.org/2000/svg"
   xmlns:svg="http://www.w3.org/2000/svg"><sodipodi:namedview
     id="namedview7"
     pagecolor="#ffffff"
     bordercolor="#000000"
     borderopacity="0.25"
     inkscape:showpageshadow="2"
     inkscape:pageopacity="0.0"
     inkscape:pagecheckerboard="0"
     inkscape:deskcolor="#d1d1d1"
     inkscape:document-units="mm"
     showgrid="false"
     inkscape:zoom="0.914906"
     inkscape:cx="435.56387"
     inkscape:cy="772.75698"
     inkscape:window-width="3840"
     inkscape:window-height="2091"
     inkscape:window-x="0"
     inkscape:window-y="0"
     inkscape:window-maximized="1"
     inkscape:current-layer="layer1" /><defs
     id="defs2" /><g
     inkscape:label="Layer 1"
     inkscape:groupmode="layer"
     id="layer1"
     transform="translate(19.063502,39.501083)"><path
       style="fill:#000000;stroke-width:1"
       d="m 158.55644,253.37504 c -9.71439,-1.02999 -17.39125,-6.80519 -19.02754,-14.31411 l -0.32724,-1.50178 -2.14511,-0.98248 c -5.19424,-2.37897 -14.22863,-4.85722 -21.19508,-5.81403 -9.04033,-1.24166 -23.946298,-0.78298 -30.956248,0.95258 -3.942636,0.97615 -4.217617,1.14107 -4.748319,2.84811 -1.118314,3.59703 -3.529277,7.13137 -7.368513,10.80169 -2.799345,2.67618 -5.347573,4.17357 -8.800227,5.1712 -2.980558,0.86122 -9.799029,0.85768 -13.813049,-0.007 -4.020265,-0.86619 -8.260609,-2.2116 -14.482392,-4.59502 -8.488125,-3.2516 -10.418181,-3.84971 -16.139584,-5.00168 -10.2008513,-2.05386 -23.8625324,-5.37993 -28.3104163,-6.89245 -3.2311977,-1.09879 -6.1534677,-2.65041 -7.5319207,-3.99926 -0.629311,-0.61576 -1.513575,-1.89349 -1.96506,-2.83937 -0.774435,-1.62256 -0.820102,-1.89183 -0.80772,-4.7625 0.01217,-2.83155 0.09954,-3.33595 1.258729,-7.26829 0.685085,-2.32408 1.379405,-4.99383 1.542917,-5.93276 0.333058,-1.91262 0.187775,-9.59561 -0.302921,-16.0184 -0.687176,-8.99485 0.844973,-13.41723 5.481505,-15.82155 2.38678,-1.2377 4.4501067,-1.88056 9.1575205,-2.85316 9.4515252,-1.95279 10.7765585,-2.81882 15.3786945,-10.05129 2.306505,-3.62474 3.94671,-5.86935 5.010944,-6.85744 l 0.690853,-0.64143 v -4.99139 c 0,-10.88446 1.547416,-17.42038 6.601116,-27.88174 3.196881,-6.6177 6.167226,-11.59871 14.73761,-24.713804 13.172572,-20.157712 21.443315,-35.509792 25.224951,-46.822323 1.881981,-5.629807 2.003002,-6.766718 1.873832,-17.603718 -0.06244,-5.23875 -0.119221,-15.894844 -0.126153,-23.680209 -0.01349,-15.1550659 0.02487,-15.718168 1.454388,-21.2989581 2.210038,-8.6282479 7.543721,-16.3890029 14.924881,-21.7163939 4.420817,-3.190735 11.467492,-6.319901 16.591442,-7.367641 2.40424,-0.491614 9.72021,-0.568452 13.18112,-0.13844 10.84982,1.348076 18.79817,5.572495 24.9964,13.285179 3.95692,4.923729 6.42938,10.075984 8.16285,17.0103269 1.71574,6.8633948 2.02139,10.9455373 2.0225,27.0109151 0,16.209939 0.33959,20.258271 2.16484,25.891054 1.66005,5.123032 3.53968,8.452477 13.96207,24.731527 14.24082,22.243167 20.4816,32.531055 24.64107,40.620555 5.21909,10.15033 8.05719,17.98172 9.4008,25.94052 0.31311,1.85473 0.44768,4.23987 0.45469,8.05844 0.0106,5.81096 -0.3986,9.18046 -1.76742,14.55208 -0.35227,1.38245 -0.61936,2.53839 -0.59349,2.56876 0.0259,0.0303 0.93499,0.18889 2.02028,0.3523 2.60448,0.39216 4.46715,1.2641 5.94191,2.78151 2.39133,2.46049 3.20368,4.49389 4.24344,10.62172 0.82039,4.835 1.1108,5.80978 2.5736,8.63809 1.38105,2.67023 2.76283,4.15907 8.26432,8.90453 7.73051,6.66816 9.67814,9.18154 9.87975,12.74961 0.12568,2.22416 -0.41291,3.83974 -1.98631,5.95828 -2.10452,2.83372 -6.06457,5.77808 -19.6674,14.6231 -3.41974,2.22364 -7.22974,4.76694 -8.46667,5.65179 -4.01045,2.86893 -15.9457,12.22584 -18.25625,14.3124 -6.33971,5.72516 -10.22247,7.66889 -16.66875,8.34448 -2.81596,0.29512 -3.50142,0.29385 -6.38524,-0.0119 z m 9.95711,-3.13833 c 3.91171,-1.03121 6.87854,-2.81487 11.2448,-6.76039 2.36016,-2.13273 11.7466,-9.57178 16.93743,-13.42348 1.67574,-1.24341 6.08105,-4.24838 9.78958,-6.67768 14.69914,-9.62877 18.20924,-12.20833 19.76991,-14.52888 1.68545,-2.50608 1.71109,-4.14081 0.10626,-6.77506 -1.41947,-2.32994 -3.858,-4.91693 -8.34356,-8.8515 -4.62539,-4.05723 -5.55718,-5.04121 -7.29583,-7.70459 -1.73461,-2.65715 -2.74214,-5.60792 -3.70946,-10.86408 -0.44926,-2.44104 -1.0463,-4.95705 -1.32678,-5.59112 -0.65566,-1.48222 -3.45837,-4.40293 -4.86304,-5.06778 -1.49331,-0.70681 -4.58708,-1.13805 -7.43847,-1.03687 l -2.38125,0.0845 -1.73289,3.0427 c -4.13893,7.26739 -7.24175,10.88329 -11.9788,13.95963 -6.44967,4.18854 -13.78177,5.06119 -17.69001,2.10542 -3.24623,-2.45514 -5.71334,-9.08724 -6.19752,-16.66036 -0.12401,-1.93969 -0.28311,-2.84427 -0.50028,-2.84427 -0.82637,0 -2.21173,0.6885 -3.13177,1.55641 -1.27822,1.20581 -1.91976,2.44644 -2.59244,5.01343 -0.56316,2.14911 -0.66421,4.05689 -1.27767,24.12183 -0.34192,11.18383 -0.51909,12.89148 -2.02308,19.50053 -3.02133,13.27663 -3.3755,16.17604 -2.64785,21.67557 0.23347,1.76461 0.6644,3.98512 0.95764,4.93445 1.68973,5.47079 7.41352,9.72883 15.01148,11.16745 2.90195,0.54944 8.51045,0.36312 11.3136,-0.37587 z M 60.298972,248.62567 c 6.215142,-0.69705 10.63617,-3.54156 15.026666,-9.66825 2.507906,-3.49964 3.577908,-7.28776 3.245935,-11.49159 -0.463973,-5.87545 -1.845416,-8.63431 -7.668287,-15.31432 -3.966659,-4.5506 -4.536889,-5.31099 -9.44827,-12.59923 -2.255467,-3.34697 -7.315782,-10.66932 -11.245189,-16.27187 -3.92938,-5.60255 -8.565065,-12.26796 -10.301552,-14.81201 -6.220936,-9.11405 -10.205138,-11.91794 -15.266882,-10.74407 -3.86461,0.89628 -5.934339,2.60594 -8.2931,6.85046 -2.794714,5.02896 -3.143223,5.55326 -4.802531,7.22466 -2.5412437,2.55977 -4.7963668,3.55576 -11.31908679,4.99928 -6.53584331,1.44642 -8.31802371,1.98993 -10.16375711,3.0997 -1.7741371,1.06672 -2.9231961,2.53343 -3.5982271,4.59295 -0.423863,1.29326 -0.506016,2.23766 -0.469953,5.40361 0.02408,2.11006 0.08353,7.17021 0.132291,11.2448 0.101389,8.47767 -0.03334,9.51801 -2.046049,15.79887 -1.338898,4.17812 -1.464654,5.75805 -0.634868,7.97587 1.789086,4.78176 4.793933,6.16077 22.7463882,10.439 4.2933148,1.02315 9.4725328,2.17829 11.5093748,2.56699 6.335157,1.20896 9.612763,2.11402 14.815847,4.0912 13.402257,5.09288 18.229712,6.42191 24.870833,6.84712 0.291042,0.0188 1.600729,-0.0863 2.910417,-0.23317 z M 107.79168,213.8505 c 11.17513,-1.74352 20.72264,-5.85279 28.31867,-12.18845 1.12101,-0.93499 3.2847,-3.00083 4.80822,-4.59074 l 2.77006,-2.89075 0.32268,-9.61726 c 0.50366,-15.01138 0.82939,-17.51579 2.6516,-20.38769 0.97801,-1.5414 3.07184,-2.96373 5.15581,-3.50231 0.85876,-0.22196 1.57929,-0.43514 1.60118,-0.47374 0.022,-0.0386 0.24093,-0.73213 0.48675,-1.54117 1.43293,-4.71569 6.3028,-6.42657 18.31107,-6.433 7.13687,-0.004 12.05775,0.69257 15.58867,2.20612 0.6668,0.28583 1.21237,0.473 1.21237,0.41595 0,-0.22473 -3.12425,-1.94413 -4.49791,-2.47538 -3.5146,-1.35925 -8.48961,-2.27703 -14.07081,-2.5958 l -3.08848,-0.1764 0.47778,-1.21754 c 1.32361,-3.37301 2.73151,-9.53042 3.06375,-13.39916 0.31273,-3.64209 -0.53592,-9.54098 -2.03497,-14.14444 -2.10939,-6.47789 -6.93856,-13.52793 -12.52939,-18.2915 -3.35868,-2.861699 -3.43025,-2.758077 -0.40931,0.59273 5.67674,6.29662 9.1713,12.78883 10.87977,20.21231 0.70948,3.08283 1.00243,10.82408 0.52329,13.82803 -0.44545,2.79262 -1.66767,6.53526 -3.19579,9.78604 l -1.27487,2.71198 h -1.60589 -1.60592 v -2.71198 c -0.003,-9.00637 -1.57615,-18.13095 -4.64296,-26.91544 -3.50213,-10.03139 -7.60161,-18.07177 -11.54956,-22.652263 -1.00238,-1.163 -1.22547,-1.651804 -1.63021,-3.571875 -0.78838,-3.740269 -1.47222,-5.758574 -3.39828,-10.029695 -4.55036,-10.090669 -6.60678,-17.038897 -9.20115,-31.088542 -0.45683,-2.473854 -0.89469,-4.761783 -0.97303,-5.084289 l -0.14248,-0.586372 -1.3626,0.689147 c -1.99967,1.011319 -3.96978,2.402424 -7.41463,5.235445 -4.98269,4.097727 -7.53176,5.873673 -10.61675,7.396737 -4.1248,2.036424 -6.81472,2.835164 -10.098064,2.99852 -8.749136,0.435293 -14.876066,-2.758249 -21.621697,-11.269871 -0.962528,-1.214501 -1.7526,-2.167001 -1.755775,-2.116667 -0.0032,0.05033 -0.422434,2.526982 -0.931731,5.503661 -1.61036,9.411743 -3.906361,19.015774 -5.822103,24.353481 -0.735991,2.050703 -3.167089,7.181659 -5.265208,11.1125 -0.660215,1.236927 -1.685872,3.727995 -2.279227,5.535707 -0.871564,2.65534 -1.29794,3.544836 -2.219404,4.630206 -6.901868,8.12965 -14.677734,30.18029 -16.008483,45.39659 -0.159067,1.81901 -0.316124,4.08119 -0.348985,5.02708 l -0.05974,1.71979 -0.614706,-1.32292 c -1.806417,-3.88749 -2.64213,-7.66005 -2.871973,-12.96458 -0.535993,-12.36846 3.498744,-24.91615 10.923984,-33.9729 0.906172,-1.10526 1.586362,-2.0693 1.511565,-2.14229 -0.07482,-0.073 -1.186921,0.96262 -2.471314,2.30138 -7.305966,7.61514 -12.074367,19.9289 -12.837981,33.15235 -0.476911,8.25847 2.236814,18.30644 6.431201,23.8125 0.72054,0.94589 3.025881,3.38667 5.122968,5.42396 3.748961,3.6421 7.026699,6.27269 16.64851,13.36146 5.243353,3.863 8.896588,7.11666 10.084488,8.98149 0.631507,0.99137 0.7493,1.45558 0.7493,2.95299 0,2.17818 -0.6935,4.50554 -1.838431,6.16963 -0.925804,1.3456 -3.308456,3.23919 -5.430441,4.31578 l -1.31572,0.66755 1.576599,1.46748 c 5.055103,4.70527 12.553395,7.73359 21.723192,8.77327 3.269191,0.37068 14.847616,0.12951 18.093126,-0.37685 z M 103.47791,60.831407 c 5.01791,-1.705914 8.25191,-3.640518 14.74544,-8.820901 2.25489,-1.798897 5.20579,-3.937958 6.55752,-4.753467 3.43355,-2.071492 4.06767,-3.129066 4.3602,-7.271898 0.1932,-2.73598 -0.14394,-3.765632 -1.67386,-5.112322 -1.36642,-1.202777 -3.25821,-2.036937 -10.28282,-4.534083 -2.7649,-0.982879 -6.9718,-2.520664 -9.34868,-3.417297 -6.08558,-2.295671 -7.77484,-2.702256 -11.421113,-2.748944 -1.79705,-0.02302 -3.638471,0.10731 -4.497917,0.318323 -4.113054,1.009832 -12.859385,6.316474 -16.637079,10.094163 -3.194976,3.194984 -4.586791,6.360375 -3.75666,8.543791 0.165549,0.435414 0.993298,1.034441 2.579687,1.866847 1.284764,0.674139 4.022196,2.219642 6.083194,3.434453 5.75691,3.393284 9.330505,4.361391 14.887205,4.03303 7.580573,-0.447955 13.857733,-2.939653 23.204883,-9.211069 3.66609,-2.459755 5.251,-3.383087 5.58454,-3.253438 0.41822,0.162575 0.39732,0.240191 -0.20527,0.761658 -0.36901,0.31935 -2.27462,1.725817 -4.23468,3.125481 -10.42257,7.442684 -16.97456,10.092055 -24.992278,10.105901 -6.255412,0.01079 -9.394799,-0.9543 -15.478125,-4.758257 -4.936014,-3.086531 -4.71551,-2.96845 -4.096174,-2.193419 5.72561,7.164991 7.036038,8.586083 9.917007,10.754466 5.096589,3.835974 12.715901,5.073062 18.70498,3.036982 z M 88.070935,29.542454 c -0.315595,-0.510624 0.11938,-1.477404 0.805312,-1.789935 1.017746,-0.463714 2.68441,-0.673695 2.876788,-0.362439 0.175154,0.283405 -2.646786,2.431997 -3.194182,2.431997 -0.173302,0 -0.39288,-0.125831 -0.487918,-0.279623 z M 99.85418,28.645067 97.605222,27.494632 98.612199,27.30322 c 1.401371,-0.266386 2.792361,0.01048 3.528881,0.702415 0.65797,0.618123 0.85405,1.825705 0.29279,1.803154 -0.1819,-0.0073 -1.34276,-0.530984 -2.57969,-1.163722 z m 26.01526,0.184822 c 3.47845,-5.180433 4.55724,-8.350133 4.34486,-12.766146 -0.3306,-6.874724 -3.66988,-11.8975713 -9.13323,-13.7380474 -6.27973,-2.11548662 -14.05803,2.4059303 -16.43695,9.5545514 -1.08638,3.26459 -1.83865,9.143188 -1.41161,11.031066 0.19222,0.849805 0.32753,0.938483 2.71148,1.776831 1.38004,0.485315 2.58101,0.886486 2.66882,0.891495 0.0878,0.005 -0.01,-0.615974 -0.21664,-1.379958 -0.49538,-1.828538 -0.29511,-4.91059 0.44696,-6.878283 0.34552,-0.916228 1.09165,-2.08752 1.87751,-2.947358 4.76975,-5.2188771 11.77478,-2.253731 12.3403,5.223499 0.24331,3.217384 -0.87283,6.204644 -3.14531,8.418113 -0.85336,0.831197 -1.19113,1.323161 -0.96406,1.404189 0.28797,0.102775 5.02872,1.919637 5.14887,1.973273 0.0204,0.009 0.81634,-1.144397 1.769,-2.563225 z m -47.698314,1.35463 1.336887,-0.960475 -0.799121,-0.485978 c -0.439526,-0.267288 -1.156044,-0.978692 -1.592289,-1.580896 -3.031067,-4.184283 -2.691659,-11.080012 0.671645,-13.645325 4.054898,-3.092823 9.281742,2.561085 8.7494,9.464278 l -0.159544,2.068962 1.499341,-0.663075 c 0.824627,-0.364688 1.562709,-0.72645 1.640152,-0.803915 0.07747,-0.07746 0.121973,-1.472459 0.0989,-3.099993 C 89.515586,13.357773 86.386941,6.6951862 82.323418,4.9471052 80.600874,4.2060814 77.820976,4.301215 76.148916,5.1584121 70.94218,7.8276901 69.763991,18.538767 73.77637,26.727394 c 0.859764,1.754637 2.625223,4.417599 2.928726,4.417599 0.07101,0 0.730727,-0.432212 1.46603,-0.960474 z"
       id="path294"
       sodipodi:nodetypes="cscsssssscssssssssssssscsssssscssssscsssscscsssssssssssccsssssssssssscsssssssssscssscssssssssssssscssssscccsscssscccsssscssssssssccccsscssccsssssscssscsscscsscsssssssscssccssssssssssssssssssssssscssscscsssscsssssscscsssccscscsscsscsssss" /></g></svg>
